inDegrees=no
num_controls=7
num_derivatives=13
num_iterations=117
num_multipliers=7
num_parameters=0
num_slacks=7
num_states=26
objective=0.453557
objective_accelerations=0.047971
objective_balance=0.000957
objective_effort=0.037753
objective_height=0.360912
objective_ligament=0.005964
solver_duration=1329.847803
status=Solve_Succeeded
success=true
DataType=double
version=3
OpenSimVersion=4.5
endheader
time	/jointset/ground_pelvis/pelvis_tilt/value	/jointset/ground_pelvis/pelvis_tx/value	/jointset/ground_pelvis/pelvis_ty/value	/jointset/hip_r/hip_flexion_r/value	/jointset/hip_r/hip_adduction_r/value	/jointset/hip_r/hip_rotation_r/value	/jointset/back/lumbar_extension/value	/jointset/patellofemoral_r/patellar_flexion_r/value	/jointset/knee_r/knee_flexion_r/value	/jointset/knee_r/knee_adduction_r/value	/jointset/knee_r/knee_rotation_r/value	/jointset/ankle_r/ankle_angle_r/value	/jointset/subtalar_r/subtalar_angle_r/value	/jointset/ground_pelvis/pelvis_tilt/speed	/jointset/ground_pelvis/pelvis_tx/speed	/jointset/ground_pelvis/pelvis_ty/speed	/jointset/hip_r/hip_flexion_r/speed	/jointset/hip_r/hip_adduction_r/speed	/jointset/hip_r/hip_rotation_r/speed	/jointset/back/lumbar_extension/speed	/jointset/patellofemoral_r/patellar_flexion_r/speed	/jointset/knee_r/knee_flexion_r/speed	/jointset/knee_r/knee_adduction_r/speed	/jointset/knee_r/knee_rotation_r/speed	/jointset/ankle_r/ankle_angle_r/speed	/jointset/subtalar_r/subtalar_angle_r/speed	/forceset/tau_hip_flexion_r	/forceset/tau_hip_adduction_r	/forceset/tau_hip_rotation_r	/forceset/tau_knee_flexion_r	/forceset/tau_ankle_angle_r	/forceset/tau_subtalar_angle_r	/forceset/tau_lumbar_extension	lambda_cid13_p0	lambda_cid14_p0	lambda_cid14_p1	lambda_cid14_p2	lambda_cid14_p3	lambda_cid14_p4	lambda_cid14_p5	/jointset/ground_pelvis/pelvis_tilt/accel	/jointset/ground_pelvis/pelvis_tx/accel	/jointset/ground_pelvis/pelvis_ty/accel	/jointset/hip_r/hip_flexion_r/accel	/jointset/hip_r/hip_adduction_r/accel	/jointset/hip_r/hip_rotation_r/accel	/jointset/back/lumbar_extension/accel	/jointset/patellofemoral_r/patellar_flexion_r/accel	/jointset/knee_r/knee_flexion_r/accel	/jointset/knee_r/knee_adduction_r/accel	/jointset/knee_r/knee_rotation_r/accel	/jointset/ankle_r/ankle_angle_r/accel	/jointset/subtalar_r/subtalar_angle_r/accel	gamma_cid13_p0	gamma_cid14_p0	gamma_cid14_p1	gamma_cid14_p2	gamma_cid14_p3	gamma_cid14_p4	gamma_cid14_p5
1.5	-0.07346843911960302	0.03326275124972938	0.8173662801389859	0.8002202737802903	-0.235987765475079	-0.09635654853200291	-0.6270322342098785	0.9458249005840423	0.9458249005841237	-0.0004818442830912312	0.1745178300788391	0.3034727806001105	0.1213272548204739	0.4412819082211051	0.2198525912238801	0.5049623934565496	-1.984147557127135	0.04415598942487434	-0.3782098170257758	0.798071449705901	-1.978895082798302	-1.978895082798275	0.2332651667043423	2.003545693763411e-05	-0.5197742218111012	-0.1227848351929043	-0.1538210449232168	-0.001128222213236627	0.02595777739122634	-0.3147200374340207	0.01959205987787357	-0.007454763141373648	0.2100356011964039	-8.636102044785297	-36.21046872515237	-8.577552857961381	0.6469136483739384	-3.503956117736532	-631.7476718850965	63.3886428751182	0.1257031334100745	0.572857995786637	-0.4943844936206218	-0.9893080337025937	-0.01994902120018031	-0.03441233117586014	1.826388952277174	-1.357694184969862	-1.357694184969869	0.8167464597640197	-0.0494307143327336	-0.6261109234448931	-0.171864247670576	8.982507569272068e-08	-6.75881880121787e-08	-2.024902924569942e-06	-1.199716818194189e-07	2.419568447042685e-07	1.69538916018804e-07	-1.336495154103197e-06
1.51	-0.0690496923024889	0.03548965090432463	0.822390151272491	0.7803315008010906	-0.235547739012958	-0.1001427803616785	-0.6189616761443987	0.925970427997394	0.9259704279974529	0.001890394836092484	0.1745178115979229	0.2982443103155329	0.1200903144688096	0.442403850057726	0.2254967905657755	0.4997044712794254	-1.993340789246232	0.04383069013493442	-0.3790299723507456	0.8159220752926966	-1.991723511184539	-1.991723511184515	0.2411712311119548	-2.012831546340031e-05	-0.5258441200570776	-0.1245967974292238	-0.1468742588919316	-0.002482951139678204	0.02567962092180152	-0.3103914912772363	0.02092820809053791	-0.008081853112309231	0.2035221565758678	-9.686726736877011	-35.5080673786223	-8.607556673157594	0.5153633963566975	-3.49529501170954	-626.9004651355725	63.06003122433052	0.09588048224632414	0.5556747648684249	-0.5575771105052367	-0.8444141641159629	-0.04184122424454793	-0.1047503898886014	1.746686147292058	-1.204036749902511	-1.204036749902916	0.7755316470231185	0.0190473350434362	-0.5860160230179304	-0.1852999683038835	5.722583411535969e-08	-1.126610103770195e-07	-2.061092883474062e-06	-4.733793069101153e-07	2.678273813513798e-07	1.34414477379979e-07	-1.323712215476299e-06
1.52	-0.06462163791231794	0.03777208732463416	0.8273582269780757	0.7603587788280789	-0.2351115697120052	-0.1039370003959514	-0.6107161544659688	0.9059959472099939	0.9059959472100296	0.004341293642508371	0.1745174627880304	0.2929574236989266	0.118835366943444	0.443143422832681	0.2309599443667397	0.4938033078724338	-2.000937355889438	0.04338455719084645	-0.3798074579449568	0.833064172295951	-2.002896722948849	-2.002896722948827	0.2489971041500965	-4.603033837508155e-05	-0.531457488216811	-0.1263862699331932	-0.1399274728606456	-0.003837680066118601	0.0254014644523669	-0.3060629451204517	0.02226435630320313	-0.008708943083242866	0.1970087119553322	-10.74823469164634	-34.80640264672617	-8.634736369268177	0.3799906641568054	-3.493806712553397	-622.068495014205	62.75038754168594	0.04922932107689037	0.5366488876003939	-0.6230327395941057	-0.66997493852436	-0.04411575202978805	-0.02587838502411176	1.684683235568951	-1.026650860584199	-1.026650860584171	0.8007081858698534	-0.04657836443486877	-0.5348049061963576	-0.1673663012005525	3.822924622399434e-08	-1.402151046362083e-07	-2.090593817922365e-06	-6.961884290952275e-07	2.834807096605139e-07	1.138969620512832e-07	-1.303509555362796e-06
1.53	-0.06018814162149403	0.0401081920049278	0.8322641244905706	0.740318193670947	-0.2346803162532538	-0.1077390764021902	-0.6023028806166639	0.8859181353279061	0.8859181353279223	0.006869587109864228	0.1745169369662411	0.2876168108647859	0.1175629215468726	0.4434893240768746	0.2362242413088932	0.4872740173434494	-2.006901169923693	0.0428524062753991	-0.3806086822786244	0.8494569691158083	-2.012373403057921	-2.012373403057917	0.2566311792748687	-5.558628620242503e-05	-0.5365790053101276	-0.1280857858929224	-0.1328999883788032	-0.00532691820814341	0.02504773879213201	-0.3019377801682789	0.02371552021838048	-0.009331398841156068	0.190424022694734	-11.80974876976065	-34.07999212261539	-8.653926101384386	0.2414647589228242	-3.492061953227237	-617.4154894066187	62.5003166561118	0.01727298392849047	0.5158657093483133	-0.6831825572613074	-0.5178323489992877	-0.06009006897270553	-0.107327887694239	1.596533637823694	-0.8643452750611397	-0.8643452750638406	0.7398890573986111	0.02217628424415894	-0.4878572613847231	-0.1691213554896554	3.36854778739992e-08	-1.491555502831421e-07	-2.11298766388636e-06	-7.802366419431582e-07	2.882782541105474e-07	1.088993027395994e-07	-1.275423441169776e-06
1.54	-0.0557531858266617	0.04249584877700794	0.8371016680282336	0.7202263208308473	-0.2342548493651893	-0.1115491813377979	-0.5937296876526347	0.8657543229069301	0.8657543229069256	0.009473247704795872	0.1745163796838128	0.2822275764296149	0.116273905568278	0.443435323634589	0.2412703627240383	0.4801325129060461	-2.011194892482877	0.04222724305312924	-0.381413243818538	0.8650479952408549	-2.020096830726688	-2.020096830726703	0.2640705296643479	-5.23224659962733e-05	-0.5411818084228612	-0.1297003863378738	-0.1258725038969604	-0.00681615635016516	0.02469401313188128	-0.2978126152161065	0.02516668413355933	-0.009953854599063804	0.1838393334341357	-12.86797622073017	-33.3552607817043	-8.67208247877141	0.1012588715107806	-3.491506332496771	-612.7871090415969	62.26206346938664	-0.03075101621896005	0.4930137821987317	-0.7454755212779082	-0.3359566435100799	-0.06271821339428482	-0.02654582627332534	1.524329096606808	-0.6760003725232226	-0.6760003725232263	0.7617632388112682	-0.04401441082817205	-0.4310621100798053	-0.1503831982449883	3.011614445824925e-08	-1.585098483733771e-07	-2.148593842957541e-06	-8.663114701271085e-07	2.945908311927966e-07	1.034278615713742e-07	-1.250436947784488e-06
1.55	-0.05132081531622385	0.04493279853967948	0.8418648033986803	0.7000999883062787	-0.2338359930014226	-0.1153675607798485	-0.585004771009294	0.8455221349388585	0.8455221349388633	0.01215003725321342	0.174516000315526	0.27679496732713	0.1149693488053322	0.44296886347514	0.2460747105854696	0.4723991991597519	-2.0137795158439	0.0415313976870143	-0.3822562603704551	0.8797813243019351	-2.026034446178293	-2.026034446178298	0.2712566803090231	-2.198649758405533e-05	-0.5452494877146683	-0.1311920864230455	-0.1187715030590807	-0.008324819842750164	0.0242562020349056	-0.293900384318021	0.02670668800397233	-0.01062313445709856	0.1771934539969668	-13.91849514572491	-32.62302294073369	-8.713302477944925	-0.03065373691931341	-3.459510208806047	-608.4007027117332	62.0203126861376	-0.06510421765553442	0.467474829508026	-0.8015447913202141	-0.1759273596172964	-0.07522262024243466	-0.1121845041325828	1.424733442069644	-0.5066998871462211	-0.5066998871447426	0.6921030433300598	0.02655084350007507	-0.3809825476985927	-0.1461993629257616	2.766952955369479e-08	-1.68340976452633e-07	-2.199422927565261e-06	-9.547213116329946e-07	3.026489893512943e-07	9.741054130756881e-08	-1.229021756634196e-06
